<?xml version="1.0" encoding="utf-8"?>
<!-- Generator: Adobe Illustrator 19.1.0, SVG Export Plug-In . SVG Version: 6.00 Build 0)  -->
<svg version="1.1" id="Layer_1" xmlns="http://www.w3.org/2000/svg" xmlns:xlink="http://www.w3.org/1999/xlink" x="0px" y="0px"
	 viewBox="0 0 300 300" style="enable-background:new 0 0 300 300;" xml:space="preserve">
<style type="text/css">
	.st0{fill:none;stroke:#1A1647;stroke-width:8.6422;stroke-miterlimit:10;}
	.st1{fill:none;stroke:#1A1647;stroke-width:2.1605;stroke-miterlimit:10;}
	.st2{fill:#1A1647;}
	.st3{fill:#FFE306;}
</style>
<circle class="st0" cx="101.6" cy="92.9" r="78.6"/>
<circle class="st1" cx="72.7" cy="74.5" r="13.4"/>
<circle class="st1" cx="126.3" cy="74.5" r="13.4"/>
<g>
	<g>
		<path class="st2" d="M96.3,169.8c0,18.4,0,36.8,0,55.2c0,2.3,3.6,2.3,3.6,0c0-18.4,0-36.8,0-55.2
			C99.9,167.5,96.3,167.5,96.3,169.8L96.3,169.8z"/>
	</g>
</g>
<circle class="st2" cx="72.7" cy="76.1" r="7.7"/>
<circle class="st2" cx="126.3" cy="76.1" r="7.7"/>
<g>
	<g>
		<path class="st2" d="M70.4,118.3c2.2,6,5.4,11.8,11,15.2c5.7,3.5,12.8,3.8,19.2,3.4c12.7-0.7,25.1-5.9,30.3-18.3
			c1.2-3-3.6-4.3-4.8-1.3c-4.2,10.1-15.3,14.1-25.5,14.7c-5,0.3-10.7,0.3-15.3-1.9c-5.3-2.6-8.2-7.7-10.1-13
			C74.1,114,69.3,115.2,70.4,118.3L70.4,118.3z"/>
	</g>
</g>
<g>
	<g>
		<path class="st3" d="M214,96c-0.2,2.7-0.1,5.3,0.2,8c0.1,1.3,1,2.5,2.5,2.5c1.2,0,2.6-1.1,2.5-2.5c-0.3-2.7-0.3-5.3-0.2-8
			C219.2,92.8,214.2,92.8,214,96L214,96z"/>
	</g>
</g>
<g>
	<g>
		<path class="st3" d="M271.3,120.2c-1.4,1.8-2.9,3.6-4.3,5.5c-0.8,1.1-1,2.5,0,3.5c0.9,0.9,2.7,1.1,3.5,0c1.4-1.8,2.9-3.6,4.3-5.5
			c0.8-1.1,1-2.5,0-3.5C274,119.3,272.2,119.1,271.3,120.2L271.3,120.2z"/>
	</g>
</g>
<g>
	<g>
		<path class="st3" d="M283.3,159.4c-0.1,0.2-0.1,0.2,0.1-0.2C283.4,159.3,283.3,159.3,283.3,159.4c0.3-0.2,0.3-0.3,0.1-0.1
			c-0.2,0.1-0.2,0.1,0.2-0.1c-0.1,0-0.2,0.1-0.3,0.1c-0.3,0.1-0.2,0,0.2,0c-0.1,0-0.2,0-0.3,0c0.4,0.1,0.5,0.1,0.2,0
			c-1.3-0.3-2.8,0.4-3.1,1.7c-0.3,1.3,0.4,2.7,1.7,3.1c2.1,0.5,4.2-0.4,5.4-2.2c0.7-1.1,0.3-2.8-0.9-3.4
			C285.5,157.8,284,158.2,283.3,159.4L283.3,159.4z"/>
	</g>
</g>
<g>
	<g>
		<path class="st3" d="M195.6,199.3C195.5,199.8,195.6,199.3,195.6,199.3c0,0-0.3,0.6-0.1,0.2c0.2-0.3-0.1,0-0.2,0.1
			c-0.1,0.1-0.1,0.1,0.2-0.2c-0.1,0.1-0.2,0.1-0.3,0.2c-1.1,0.7-1.6,2.3-0.9,3.4c0.7,1.1,2.2,1.6,3.4,0.9c1.3-0.7,2.2-1.9,2.6-3.3
			c0.4-1.3-0.5-2.8-1.7-3.1C197.4,197.2,196.1,197.9,195.6,199.3L195.6,199.3z"/>
	</g>
</g>
<g>
	<g>
		<path class="st3" d="M174.1,173.7c-2.5,1.2-5.1,1.5-7.8,1.4c-3.2-0.2-3.2,4.8,0,5c3.6,0.2,7.1-0.5,10.3-2
			C179.5,176.6,177,172.3,174.1,173.7L174.1,173.7z"/>
	</g>
</g>
<g>
	<g>
		<path class="st3" d="M187.6,133.2c-2.2-1.7-4.6-3-7.3-3.9c-3.1-1-4.4,3.9-1.3,4.8c1.8,0.6,3.5,1.4,5,2.6c1.1,0.8,2.5,1,3.5,0
			C188.4,135.9,188.6,134,187.6,133.2L187.6,133.2z"/>
	</g>
</g>
<image style="overflow:visible;" width="201" height="390" xlink:href="../../../../download/Logomakr_05xwkc.png"  transform="matrix(0.405 0 0 0.405 193.6185 123.8481)">
</image>
</svg>
