<?xml version="1.0" encoding="utf-8"?>
<!-- Generator: Adobe Illustrator 19.1.0, SVG Export Plug-In . SVG Version: 6.00 Build 0)  -->
<svg version="1.1" id="Layer_1" xmlns="http://www.w3.org/2000/svg" xmlns:xlink="http://www.w3.org/1999/xlink" x="0px" y="0px"
	 viewBox="0 0 270 400" style="enable-background:new 0 0 270 400;" xml:space="preserve">
<style type="text/css">
	.st0{fill:none;stroke:#1B1548;stroke-width:8.0516;stroke-miterlimit:10;}
	.st1{fill:#1B1548;}
	.st2{fill:#EFD314;}
</style>
<circle class="st0" cx="121.5" cy="82.3" r="68.4"/>
<g>
	<g>
		<path class="st1" d="M87.4,70.8c9.8,0,9.8-15.1,0-15.1C77.6,55.6,77.6,70.8,87.4,70.8L87.4,70.8z"/>
	</g>
</g>
<g>
	<g>
		<path class="st1" d="M145.6,68.7c9.8,0,9.8-15.1,0-15.1C136,53.6,136,68.7,145.6,68.7L145.6,68.7z"/>
	</g>
</g>
<g>
	<g>
		<path class="st1" d="M128.5,153.2c1.4,0,2.7,0,4,0c1.4,0,2.6-1.1,2.5-2.5c-0.1-1.4-1.1-2.5-2.5-2.5c-1.4,0-2.7,0-4,0
			c-1.4,0-2.6,1.1-2.5,2.5C126.1,152.1,127.2,153.2,128.5,153.2L128.5,153.2z"/>
	</g>
</g>
<g>
	<g>
		<path class="st1" d="M127.4,154.8c0.5,57.4,0.9,114.8,1.5,172.2c0,3.3,5.1,3.3,5,0c-0.5-57.4-0.9-114.8-1.5-172.2
			C132.4,151.5,127.3,151.5,127.4,154.8L127.4,154.8z"/>
	</g>
</g>
<g>
	<g>
		<path class="st1" d="M132,329.1c27.1,11.3,49.7,31.3,64.5,56.6c1.6,2.8,6,0.2,4.3-2.5c-15.4-26.5-39.1-47.2-67.5-59
			C130.3,323,129.1,327.8,132,329.1L132,329.1z"/>
	</g>
</g>
<g>
	<g>
		<path class="st1" d="M127.8,325.5c-8.5,22.7-21.7,43.3-38.4,60.9c-2.3,2.4,1.4,5.9,3.5,3.5c17.5-18.1,30.8-39.6,39.7-63.1
			C133.8,323.8,129,322.4,127.8,325.5L127.8,325.5z"/>
	</g>
</g>
<g>
	<g>
		<path class="st1" d="M99.4,110.2c14.1,6.1,34,5.4,43.5-8.2c1.9-2.6-2.5-5.1-4.3-2.5c-7.8,11.1-25.4,11.3-36.7,6.4
			C99,104.6,96.4,108.9,99.4,110.2L99.4,110.2z"/>
	</g>
</g>
<g>
	<g>
		<path class="st1" d="M71,62c10.4-0.6,20.5-2.5,30.3-5.9c3-1,1.7-5.9-1.3-4.8c-9.4,3.3-19,5.2-29,5.8C67.8,57.2,67.7,62.2,71,62
			L71,62z"/>
	</g>
</g>
<g>
	<g>
		<path class="st1" d="M129.9,59c8.3-1,17.1-2.3,23-8.8c2.2-2.4-1.4-5.9-3.5-3.5c-5,5.5-12.5,6.5-19.5,7.3
			C126.8,54.4,126.7,59.4,129.9,59L129.9,59z"/>
	</g>
</g>
<g>
	<g>
		<path class="st1" d="M132.6,197.5c20.2-14.5,40.4-29,60.7-43.4c2.6-1.9,0.1-6.2-2.5-4.3c-20.2,14.5-40.4,29-60.7,43.4
			C127.5,195.1,130,199.4,132.6,197.5L132.6,197.5z"/>
	</g>
</g>
<g>
	<g>
		<path class="st1" d="M192.1,149.9c-18.7-8.2-26.4-28.8-41.7-41.2c-2.5-2-6,1.5-3.5,3.5c15.6,12.7,23.5,33.6,42.7,42
			C192.4,155.5,195,151.2,192.1,149.9L192.1,149.9z"/>
	</g>
</g>
<g>
	<g>
		<path class="st1" d="M128.4,192.8c-15.5,15.5-32.6,29.1-51.1,40.7c-2.7,1.7-0.2,6,2.5,4.3c18.9-11.8,36.4-25.7,52.1-41.5
			C134.2,194.1,130.7,190.5,128.4,192.8L128.4,192.8z"/>
	</g>
</g>
<g>
	<g>
		<path class="st1" d="M73.9,238.3c16.7,15.3,34.1,29.9,51.9,43.9c2.5,2,6.1-1.6,3.5-3.5c-17.9-14-35.2-28.6-51.9-43.9
			C75.1,232.6,71.5,236.2,73.9,238.3L73.9,238.3z"/>
	</g>
</g>
<g>
	<g>
		<path class="st2" d="M217.6,27.8c-2.6-3.3,10.6-5.3,11.7-5.3c4.1-0.2,8.2,0.9,9.8,5.1c2.4,6.5-2.4,13.2-6,18.1
			c-3.7,5.1-7,10.1-7.8,16.4c-0.9,6.8,0.8,13.6,3.2,19.9c1.2,3,6,1.7,4.8-1.3c-2.2-5.7-3.9-11.7-3.1-17.9c0.8-5.9,4.3-10.5,7.7-15.2
			c4.5-6.3,9-14.6,5.5-22.4c-3.3-7.5-11.5-8.3-18.7-7.1c-6.2,1.1-17,5.4-10.7,13.3C216.1,33.9,219.6,30.3,217.6,27.8L217.6,27.8z"/>
	</g>
</g>
<g>
	<g>
		<path class="st2" d="M230.4,107.3c3.2,0,3.2-5,0-5C227.2,102.3,227.2,107.3,230.4,107.3L230.4,107.3z"/>
	</g>
</g>
<g>
	<g>
		<path class="st2" d="M29.9,154.4c0.6,0.6,1.3,1.2,1.9,1.9c0.8,0.1,1.5,0.2,2.3,0.4c1.5,0.4,2.9,0.9,4.2,1.7
			c2.6,1.6,4.7,4.1,5.3,7.2c1.1,5.6-3.9,9-6.2,13.5c-3.8,7.2-3.3,15.8,0.5,22.8c1.5,2.8,5.9,0.3,4.3-2.5c-2.4-4.4-3.1-9.3-1.9-14.2
			c1.1-4.4,4.1-7,6.3-10.7c3.2-5.3,2.5-12.1-1.5-16.8c-3.3-3.9-11.1-8.2-16.4-6.1c-4.1,1.6-3.6,7.8,1.1,7.8
			C33.1,159.4,33.2,154.4,29.9,154.4L29.9,154.4z"/>
	</g>
</g>
<g>
	<g>
		<path class="st2" d="M46.6,227.5c3.2,0,3.2-5,0-5C43.4,222.5,43.4,227.5,46.6,227.5L46.6,227.5z"/>
	</g>
</g>
</svg>
