<?xml version="1.0" encoding="utf-8"?>
<!-- Generator: Adobe Illustrator 19.1.0, SVG Export Plug-In . SVG Version: 6.00 Build 0)  -->
<svg version="1.1" id="Layer_1" xmlns="http://www.w3.org/2000/svg" xmlns:xlink="http://www.w3.org/1999/xlink" x="0px" y="0px"
	 viewBox="-285 395.5 270 400" style="enable-background:new -285 395.5 270 400;" xml:space="preserve">
<style type="text/css">
	.st0{fill:none;stroke:#1A1449;stroke-width:7.0997;stroke-miterlimit:10;}
	.st1{fill:#1A1449;}
	.st2{fill:#F7DF51;}
</style>
<circle class="st0" cx="-150.6" cy="525.9" r="60.3"/>
<g>
	<g>
		<path class="st1" d="M-180.7,515.7c8.6,0,8.6-13.3,0-13.3C-189.3,502.3-189.3,515.7-180.7,515.7L-180.7,515.7z"/>
	</g>
</g>
<g>
	<g>
		<path class="st1" d="M-129.3,513.9c8.6,0,8.6-13.3,0-13.3C-137.8,500.6-137.8,513.9-129.3,513.9L-129.3,513.9z"/>
	</g>
</g>
<g>
	<g>
		<path class="st1" d="M-170.4,545.8c13-2.3,26-4.7,39.1-7c2.8-0.5,1.6-4.8-1.2-4.3c-13,2.3-26,4.7-39.1,7
			C-174.4,542-173.2,546.3-170.4,545.8L-170.4,545.8z"/>
	</g>
</g>
<g>
	<g>
		<path class="st1" d="M-175.2,546.2c7.3,7.1,17.2,11.1,27.5,10.7c8.3-0.3,18.3-3.8,19.3-13.3c0.3-2.8-4.2-2.8-4.4,0
			c-0.8,8.3-13.1,9.3-19.4,8.8c-7.5-0.7-14.4-4.1-19.9-9.3C-174.1,541-177.3,544.2-175.2,546.2L-175.2,546.2z"/>
	</g>
</g>
<g>
	<g>
		<path class="st1" d="M-134.1,539.8c0.6,1.5,1.2,3,1.8,4.4c0.4,1.1,1.5,1.9,2.7,1.5c1.1-0.3,2-1.6,1.5-2.7c-0.6-1.5-1.2-3-1.8-4.4
			c-0.4-1.1-1.5-1.9-2.7-1.5C-133.6,537.4-134.6,538.7-134.1,539.8L-134.1,539.8z"/>
	</g>
</g>
<g>
	<g>
		<path class="st1" d="M-144.4,588.4c1.2,0,2.4,0,3.5,0c1.2,0,2.3-1,2.2-2.2s-1-2.2-2.2-2.2s-2.4,0-3.5,0c-1.2,0-2.3,1-2.2,2.2
			C-146.5,587.4-145.6,588.4-144.4,588.4L-144.4,588.4z"/>
	</g>
</g>
<g>
	<g>
		<path class="st1" d="M-145.4,589.8c0.4,50.6,0.8,101.2,1.3,151.8c0,2.9,4.5,2.9,4.4,0c-0.4-50.6-0.8-101.2-1.3-151.8
			C-141,586.9-145.5,586.9-145.4,589.8L-145.4,589.8z"/>
	</g>
</g>
<g>
	<g>
		<path class="st1" d="M-139.1,649.1c23.4-24.1,45.3-49.5,65.8-76.1c1.7-2.3-2.1-4.5-3.8-2.2c-20.2,26.3-42,51.4-65.1,75.2
			C-144.3,648-141.1,651.2-139.1,649.1L-139.1,649.1z"/>
	</g>
</g>
<g>
	<g>
		<path class="st1" d="M-142.3,644.4c-10-12.1-22.1-22.1-36-29.4c-14.1-7.5-29.5-12.7-41.8-23.2c-2.2-1.8-5.3,1.3-3.1,3.1
			c11.8,10,26.1,15.4,39.7,22.3c14.7,7.4,27.5,17.6,38.1,30.3C-143.6,649.8-140.5,646.6-142.3,644.4L-142.3,644.4z"/>
	</g>
</g>
<g>
	<g>
		<path class="st1" d="M-141.3,743.5c23.9,10,43.8,27.6,56.9,49.9c1.4,2.5,5.3,0.2,3.8-2.2c-13.6-23.4-34.5-41.6-59.5-52
			C-142.8,738.1-143.9,742.4-141.3,743.5L-141.3,743.5z"/>
	</g>
</g>
<g>
	<g>
		<path class="st1" d="M-145,740.3c-7.5,20-19.1,38.2-33.9,53.7c-2,2.1,1.2,5.2,3.1,3.1c15.4-16,27.2-34.9,35-55.6
			C-139.7,738.8-144,737.6-145,740.3L-145,740.3z"/>
	</g>
</g>
<g>
	<g>
		<path class="st2" d="M-109.2,442.1c9.4-12.2,17.8-25.1,25.2-38.5c1.4-2.5-2.5-4.7-3.8-2.2c-7.4,13.5-15.8,26.3-25.2,38.5
			C-114.7,442.1-110.9,444.4-109.2,442.1L-109.2,442.1z"/>
	</g>
</g>
<g>
	<g>
		<path class="st2" d="M-77.8,488.5c14.9-0.8,29.7-2.9,44.2-6.2c2.8-0.6,1.6-4.9-1.2-4.3c-14.2,3.2-28.5,5.2-43,6
			C-80.7,484.2-80.7,488.6-77.8,488.5L-77.8,488.5z"/>
	</g>
</g>
<g>
	<g>
		<path class="st2" d="M-176.3,433.7c-5.1-13.8-11.6-26.9-19.5-39.3c-1.5-2.4-5.4-0.2-3.8,2.2c7.7,12.1,14.1,24.8,19.1,38.2
			C-179.6,437.5-175.3,436.4-176.3,433.7L-176.3,433.7z"/>
	</g>
</g>
<g>
	<g>
		<path class="st2" d="M-221.2,468.5c-9.7-3.4-19.3-7.1-28.8-11c-2.6-1.1-3.8,3.2-1.2,4.3c9.5,3.9,19.1,7.6,28.8,11
			C-219.7,473.7-218.5,469.4-221.2,468.5L-221.2,468.5z"/>
	</g>
</g>
<g>
	<g>
		<path class="st2" d="M-233.1,529.8c-9.1,0.2-17.6,2.1-26,5.7c-2.6,1.1-0.4,5,2.2,3.8c7.6-3.3,15.5-4.9,23.7-5.1
			C-230.2,534.2-230.2,529.8-233.1,529.8L-233.1,529.8z"/>
	</g>
</g>
<g>
	<g>
		<path class="st2" d="M-47.6,542.1c7.7,0.9,15.4,1.9,23.1,2.8c2.8,0.3,2.8-4.1,0-4.4c-7.7-0.9-15.4-1.9-23.1-2.8
			C-50.4,537.3-50.4,541.8-47.6,542.1L-47.6,542.1z"/>
	</g>
</g>
<g>
	<g>
		<path class="st2" d="M-214,629.2c-7.4,5.2-14.3,11.1-20.5,17.6c-2,2.1,1.2,5.2,3.1,3.1c6-6.3,12.5-11.9,19.7-16.9
			C-209.5,631.4-211.7,627.6-214,629.2L-214,629.2z"/>
	</g>
</g>
<g>
	<g>
		<path class="st2" d="M-91.2,637.6c7.9,5.4,15.9,10.8,23.8,16.2c2.4,1.6,4.6-2.2,2.2-3.8c-7.9-5.4-15.9-10.8-23.8-16.2
			C-91.3,632.2-93.5,636-91.2,637.6L-91.2,637.6z"/>
	</g>
</g>
<g>
	<g>
		<path class="st2" d="M-53.8,593.4c8.2,1,15.8,4.3,22.2,9.6c2.2,1.8,5.3-1.3,3.1-3.1c-7.4-6.1-15.9-9.7-25.4-10.9
			C-56.6,588.6-56.6,593.1-53.8,593.4L-53.8,593.4z"/>
	</g>
</g>
<g>
	<g>
		<path class="st2" d="M-257.4,595.7c-5,2.7-10,5.5-14.9,8.2c-2.5,1.4-0.3,5.2,2.2,3.8c5-2.7,10-5.5,14.9-8.2
			C-252.6,598.2-254.9,594.3-257.4,595.7L-257.4,595.7z"/>
	</g>
</g>
</svg>
