<?xml version="1.0" encoding="utf-8"?>
<!-- Generator: Adobe Illustrator 19.1.0, SVG Export Plug-In . SVG Version: 6.00 Build 0)  -->
<svg version="1.1" id="Layer_1" xmlns="http://www.w3.org/2000/svg" xmlns:xlink="http://www.w3.org/1999/xlink" x="0px" y="0px"
	 viewBox="0 0 300 300" style="enable-background:new 0 0 300 300;" xml:space="preserve">
<style type="text/css">
	.st0{fill:none;stroke:#1A1647;stroke-width:8.6422;stroke-miterlimit:10;}
	.st1{fill:none;stroke:#1A1647;stroke-width:2.1605;stroke-miterlimit:10;}
	.st2{fill:#1A1647;}
	.st3{fill:#FFFFFF;}
	.st4{fill:none;stroke:#1A1647;stroke-width:3;stroke-miterlimit:10;}
</style>
<circle class="st0" cx="101.6" cy="92.9" r="78.6"/>
<circle class="st1" cx="72.7" cy="74.5" r="13.4"/>
<circle class="st1" cx="126.3" cy="74.5" r="13.4"/>
<g>
	<g>
		<path class="st2" d="M96.3,169.8c0,18.4,0,36.8,0,55.2c0,2.3,3.6,2.3,3.6,0c0-18.4,0-36.8,0-55.2
			C99.9,167.5,96.3,167.5,96.3,169.8L96.3,169.8z"/>
	</g>
</g>
<circle class="st2" cx="72.7" cy="76.1" r="7.7"/>
<circle class="st2" cx="126.3" cy="76.1" r="7.7"/>
<g>
	<g>
		<path class="st3" d="M234.8,140.6c12.6,0,25.2,0,37.8,0c0,48.4,0,96.7,0,145.1c-30.6,0-61.3,0-91.9,0c0-20.8,0-41.5,0-62.3
			c0.1,0.5,0.3,1,0.3,1.5c0.3,8.1,0.5,16.3,0.8,24.4c0,1,0.6,2,1,3.1c0,0,0,0,0,0c0.8,0.3,1.7,0.9,2.5,1c4.2,0.3,8.4,0.4,12.6,0.6
			c-0.1,1.2-0.3,2.4-0.3,3.5c0,2.5,0.7,3.2,3.2,3.2c1.2,0,2.3,0.1,3.8,0.2c-0.4,1.2-0.6,2.1-0.9,2.9c-1.8,5.7-3.5,11.4-5.4,17.1
			c-0.5,1.6-0.2,2.9,1.3,3.3c1.9,0.6,4,0.9,6,1c1.6,0.1,2.5-0.8,2.9-2.5c1.7-6.7,3.6-13.2,5.5-19.9c0.3-1.1,0.8-1.7,2.2-1.7
			c8.8-0.2,17.6-0.5,26.3-0.8c1.3,0,2.1,0.2,2.7,1.5c2.2,5,4.8,9.8,6.7,14.9c1.2,3.3,2.6,5.5,6.5,4.8c0.8-0.1,1.7,0.1,2.5,0.2
			c3.4,0,3.7-0.7,2.3-3.7c-2.7-6-5.2-12-7.9-18.4c5-0.1,3.2-4.1,4.6-6.5c2.7,0,5.7-0.1,8.6,0c2.2,0.1,2.9-0.7,2.9-2.9
			c0-8.4,0.2-16.8,0.3-25.2c0.1-14.2,0.2-28.4,0.1-42.5c-0.1-9.4-0.6-18.8-0.8-28.2c0-1.8-0.4-2.4-2.2-2.4
			c-7.6-0.2-15.1-0.5-22.7-0.7c-3.7-0.1-7.4,0-11.1,0C234.8,147.1,234.8,143.9,234.8,140.6z"/>
		<path d="M234.8,140.6c0,3.2,0,6.5,0,10.3c3.8,0,7.4-0.1,11.1,0c7.6,0.2,15.1,0.5,22.7,0.7c1.8,0,2.1,0.6,2.2,2.4
			c0.1,9.4,0.7,18.8,0.8,28.2c0.1,14.2,0,28.4-0.1,42.5c0,8.4-0.3,16.8-0.3,25.2c0,2.2-0.7,3-2.9,2.9c-2.9-0.1-5.9,0-8.6,0
			c-1.4,2.5,0.4,6.4-4.6,6.5c2.7,6.4,5.3,12.4,7.9,18.4c1.4,3.1,1,3.8-2.3,3.7c-0.8,0-1.7-0.3-2.5-0.2c-3.9,0.7-5.3-1.5-6.5-4.8
			c-1.9-5.1-4.5-9.9-6.7-14.9c-0.6-1.3-1.4-1.5-2.7-1.5c-8.8,0.3-17.6,0.6-26.3,0.8c-1.4,0-1.9,0.6-2.2,1.7
			c-1.8,6.6-3.7,13.2-5.5,19.9c-0.4,1.7-1.3,2.6-2.9,2.5c-2-0.1-4.1-0.5-6-1c-1.5-0.5-1.8-1.7-1.3-3.3c1.8-5.7,3.6-11.4,5.4-17.1
			c0.3-0.8,0.5-1.7,0.9-2.9c-1.5-0.1-2.6-0.2-3.8-0.2c-2.5-0.1-3.2-0.7-3.2-3.2c0-1.1,0.2-2.2,0.3-3.5c-4.2-0.2-8.4-0.3-12.6-0.6
			c-0.9-0.1-1.7-0.6-2.5-1c0.7,0,1.4,0,2,0c8.8-0.5,17.5-1.3,26.3-1.4c17.6-0.2,35.2-0.1,52.8-0.2c1.8,0,3.6,0,5.3,0
			c0-32.5,0-64.7,0-97c-2.6-0.1-5.3-0.4-8-0.4c-15.5,0.1-31.1,0.1-46.6,0.3c-9.7,0.1-19.4,0.4-29.1,0.7c-0.6,0-1.7,0.6-1.7,1
			c-0.2,2-0.1,4-0.1,6.3c7,0,13.9,0,20.7,0c0,0.3,0,0.6,0,0.8c-6.9,0-13.9,0-20.8,0c0,4.2,0,7.8,0,11.5c2.8,0,5.5,0,8.3,0
			c0,0.2,0,0.5,0,0.7c-2.7,0.2-5.5,0.4-8.2,0.5c0,1.6,0,3.4,0,5.6c5.8-0.5,11.4-0.9,16.9-1.4c-5.5,2.3-11.2,2.1-16.9,2
			c0,2.2,0,4.2,0,6.2c4.2,0,8.2,0,12.2,0c0,0.3,0,0.5,0,0.8c-4.1,0-8.2,0-12.3,0c0,2.1,0,3.6,0,5.5c2.9,0,5.7,0,8.5,0
			c0,0.2,0,0.4,0,0.6c-2.8,0-5.6,0-8.6,0c0,4.6,0,9.1,0,13.6c5.4-0.5,10.7-0.9,15.9-1.4c0,0.3,0.1,0.6,0.1,0.9
			c-5.3,0.5-10.7,1-16,1.4c0,1.7,0,3.3,0,5.2c4.8-0.3,9.4-0.6,14.1-0.9c0,0.3,0,0.5,0,0.8c-4.7,0.3-9.4,0.7-14.2,1c0,1.9,0,3.9,0,6
			c5.3,0,10.7,0,16,0c0,0.3,0,0.5,0,0.8c-5.4,0-10.7,0-16.1,0c0,2.1,0,3.7,0,5.6c3,0,5.8,0,8.7,0c0,0.2,0,0.4,0,0.7
			c-2.9,0-5.8,0-8.8,0c0,2.9,0,5.4,0,8c0,1.7,0.7,2.4,2.4,2.4c1.4,0,2.8,0.2,4.2,0.3c0,0.2,0,0.3-0.1,0.5c-2.1,0-4.1,0-6.3,0
			c0,1.2,0,2.2,0,3.2c5,0.2,9.8,0.5,14.7,0.7c0,0.2,0,0.4,0,0.6c-4.9,0-9.7,0-14.6,0c0,1.2,0,2.4,0,3.7c3,0.3,5.9,0.5,8.9,0.7
			c0,0.2,0,0.5,0,0.7c-2.9,0-5.9,0-8.6,0c-0.4,1.1-0.7,2.1-1,3c-0.3-1-0.9-2-1-3.1c-0.3-8.1-0.5-16.3-0.8-24.4c0-0.5-0.2-1-0.3-1.5
			c0-13.5,0-27,0-40.5c0.1-0.6,0.3-1.1,0.3-1.7c0.5-8.5,1-17.1,1.4-25.6c0.1-1.7,0.7-2.2,2.3-2.3c10.4-0.7,20.8-1.6,31.2-2.4
			c1-0.1,2-0.2,3-0.3c0-2.8-0.1-5.3,0-7.8c0-0.8,0.6-1.6,0.9-2.3C224.8,140.6,229.8,140.6,234.8,140.6z M257.4,253.2
			c-19.3,0.3-38.5,0.7-57.9,1c0,0.5-0.1,1.1-0.1,1.7c2.9,0,5.5,0,8.2,0c0,0.2,0,0.3,0,0.5c-2.7,0.1-5.4,0.3-8.2,0.4
			c0,0.9,0,1.7,0,2.5c19.3-0.6,38.5-1.2,57.7-1.8C257.2,255.9,257.3,254.6,257.4,253.2z M261.4,279.3c-2.6-6.6-5.2-13.2-7.8-19.9
			c-2.3,0.2-4.9,0.5-7.1,0.7c2.9,6.5,5.7,12.7,8.7,19.2C256.9,279.3,259.2,279.3,261.4,279.3z M206,283.2c2.3-7.7,4.4-14.9,6.5-22
			c-5.6-0.8-6.7-0.5-6.8,2.3c1.2-0.1,2.5-0.3,3.7-0.4c-1.9,1.3-5.4,0.5-4.8,4.8c1.3,0,2.7,0,4,0c-0.7,0.6-1.4,0.9-2.1,0.9
			c-0.8,0-1.6-0.2-2.5-0.3c-0.3,1.3-0.6,2.5-0.9,3.6c0.9,0.2,1.5,0.3,2.8,0.5c-3.4,0.6-4.1,1.6-4.6,5.8c0.7,0.2,1.4,0.3,2.2,0.5
			c0,0.1-0.1,0.3-0.1,0.4c-0.9,0-1.8,0-2.7,0c-0.3,1.1-0.6,2.1-1.1,3.5C202,282.9,204.1,283.1,206,283.2z M220.9,148.8
			c-0.2,0.2-0.4,0.5-0.5,0.7c0.5,0.4,0.9,1.2,1.4,1.2c3.8,0.1,7.7,0.1,11.5,0.1c0-3,0-5.6,0-8.1c-4.3-0.3-8.4-0.5-12.5-0.8
			c-0.4,1.9,0.1,2.9,2.2,2.9c2.9,0,5.8,0.2,8.7,0.3c0,0.1,0,0.2,0,0.4c-3.5,0-7,0-10.7,0c-0.1,0.8-0.2,1.6-0.3,2.5
			c1.9,0.2,3.5,0.3,5.1,0.5c0,0.1,0,0.3,0,0.4C224.1,148.8,222.5,148.8,220.9,148.8z"/>
		<path class="st3" d="M219.8,140.6c-0.3,0.8-0.8,1.5-0.9,2.3c-0.1,2.5,0,5,0,7.8c-0.9,0.1-1.9,0.2-3,0.3
			c-10.4,0.8-20.8,1.6-31.2,2.4c-1.6,0.1-2.2,0.6-2.3,2.3c-0.4,8.5-0.9,17.1-1.4,25.6c0,0.6-0.2,1.1-0.3,1.7c0-14.1,0-28.1,0-42.3
			C193.7,140.6,206.7,140.6,219.8,140.6z"/>
		<path class="st3" d="M182.7,252.4c0.3-0.9,0.6-1.9,1-3c2.7,0,5.6,0,8.6,0c0-0.2,0-0.5,0-0.7c-2.9-0.2-5.8-0.5-8.9-0.7
			c0-1.3,0-2.5,0-3.7c4.9,0,9.8,0,14.6,0c0-0.2,0-0.4,0-0.6c-4.9-0.2-9.7-0.5-14.7-0.7c0-1,0-2,0-3.2c2.1,0,4.2,0,6.3,0
			c0-0.2,0-0.3,0.1-0.5c-1.4-0.1-2.8-0.4-4.2-0.3c-1.7,0.1-2.5-0.6-2.4-2.4c0-2.6,0-5.1,0-8c3.1,0,5.9,0,8.8,0c0-0.2,0-0.4,0-0.7
			c-2.8,0-5.7,0-8.7,0c0-1.9,0-3.4,0-5.6c5.3,0,10.7,0,16.1,0c0-0.3,0-0.5,0-0.8c-5.3,0-10.7,0-16,0c0-2,0-4,0-6
			c4.9-0.4,9.5-0.7,14.2-1c0-0.3,0-0.5,0-0.8c-4.6,0.3-9.3,0.6-14.1,0.9c0-1.9,0-3.5,0-5.2c5.3-0.5,10.7-1,16-1.4
			c0-0.3-0.1-0.6-0.1-0.9c-5.2,0.5-10.5,0.9-15.9,1.4c0-4.5,0-8.9,0-13.6c2.9,0,5.7,0,8.6,0c0-0.2,0-0.4,0-0.6c-2.8,0-5.6,0-8.5,0
			c0-1.9,0-3.4,0-5.5c4,0,8.1,0,12.3,0c0-0.3,0-0.5,0-0.8c-4,0-8.1,0-12.2,0c0-2,0-4,0-6.2c5.7,0.1,11.5,0.3,16.9-2
			c-5.6,0.5-11.2,0.9-16.9,1.4c0-2.2,0-4,0-5.6c2.8-0.2,5.5-0.4,8.2-0.5c0-0.2,0-0.5,0-0.7c-2.7,0-5.5,0-8.3,0c0-3.7,0-7.3,0-11.5
			c7,0,13.9,0,20.8,0c0-0.3,0-0.6,0-0.8c-6.9,0-13.7,0-20.7,0c0-2.3-0.1-4.3,0.1-6.3c0-0.4,1.1-1,1.7-1c9.7-0.3,19.4-0.6,29.1-0.7
			c15.5-0.2,31.1-0.3,46.6-0.3c2.7,0,5.4,0.3,8,0.4c0,32.3,0,64.4,0,97c-1.7,0-3.5,0-5.3,0c-17.6,0-35.2-0.1-52.8,0.2
			c-8.8,0.1-17.5,0.9-26.3,1.4C184,252.4,183.3,252.4,182.7,252.4C182.6,252.4,182.7,252.4,182.7,252.4z M184.4,234.3
			C184.4,234.3,184.4,234.3,184.4,234.3c6.5,0,13,0,19.5,0c0-0.2,0-0.5,0-0.7C197.4,233.8,190.9,234.1,184.4,234.3z M183.4,200.8
			c3.1,1.6,8.5,1.4,9.9,0C190.2,200.8,187.1,200.8,183.4,200.8z M185.4,167.9c2.1,1.4,6.7,1.1,8.2-0.6
			C190.8,167.6,188.3,167.7,185.4,167.9z"/>
		<path class="st3" d="M257.4,253.2c-0.1,1.3-0.2,2.7-0.3,4.3c-19.2,0.6-38.4,1.2-57.7,1.8c0-0.9,0-1.6,0-2.5
			c2.8-0.1,5.5-0.3,8.2-0.4c0-0.2,0-0.3,0-0.5c-2.7,0-5.3,0-8.2,0c0-0.5,0.1-1.1,0.1-1.7C218.9,253.9,238.1,253.6,257.4,253.2z"/>
		<path class="st3" d="M261.4,279.3c-2.2,0-4.5,0-6.3,0c-2.9-6.5-5.8-12.7-8.7-19.2c2.3-0.2,4.8-0.5,7.1-0.7
			C256.2,266.1,258.8,272.7,261.4,279.3z"/>
		<path class="st3" d="M206,283.2c-1.8-0.1-4-0.3-6.3-0.4c0.4-1.5,0.7-2.5,1.1-3.5c1,0,1.8,0,2.7,0c0-0.1,0.1-0.3,0.1-0.4
			c-0.7-0.2-1.4-0.3-2.2-0.5c0.4-4.2,1.1-5.2,4.6-5.8c-1.2-0.2-1.9-0.4-2.8-0.5c0.3-1.1,0.6-2.3,0.9-3.6c0.9,0.1,1.7,0.3,2.5,0.3
			c0.7,0,1.4-0.3,2.1-0.9c-1.3,0-2.7,0-4,0c-0.6-4.2,2.9-3.4,4.8-4.8c-1.2,0.1-2.4,0.3-3.7,0.4c0.1-2.7,1.3-3.1,6.8-2.3
			C210.4,268.3,208.2,275.5,206,283.2z"/>
		<path class="st3" d="M220.9,148.8c1.6,0,3.2,0,4.8,0c0-0.1,0-0.3,0-0.4c-1.6-0.1-3.2-0.3-5.1-0.5c0.1-0.8,0.2-1.7,0.3-2.5
			c3.7,0,7.2,0,10.7,0c0-0.1,0-0.2,0-0.4c-2.9-0.1-5.8-0.3-8.7-0.3c-2.1,0-2.6-1-2.2-2.9c4.2,0.3,8.3,0.5,12.5,0.8
			c0,2.6,0,5.2,0,8.1c-3.8,0-7.7,0-11.5-0.1c-0.5,0-0.9-0.8-1.4-1.2C220.6,149.3,220.7,149,220.9,148.8z"/>
		<path d="M184.4,234.3c6.5-0.2,13-0.5,19.5-0.7c0,0.2,0,0.5,0,0.7C197.4,234.3,190.9,234.3,184.4,234.3
			C184.4,234.3,184.4,234.3,184.4,234.3z"/>
		<path d="M183.4,200.8c3.7,0,6.8,0,9.9,0C191.9,202.2,186.5,202.4,183.4,200.8z"/>
		<path d="M185.4,167.9c2.8-0.2,5.4-0.4,8.2-0.6C192.1,169,187.5,169.4,185.4,167.9z"/>
	</g>
</g>
<g>
	<g>
		<path class="st2" d="M204.7,14.3c2.9-3.8,12.1,1,14.8,3.1c1,0.8,2.8,2.2,3,3.5c0.5,2.1-1.7,5-3.1,6.3c-1.9,1.7-4.8,2.7-7,4
			c-8.6,4.6-7.6,13.7-4.3,21.8c1.2,2.9,6,1.7,4.8-1.3c-1.5-3.6-4.2-10.9-0.9-14.3c2.3-2.5,7.1-3.9,9.9-5.8c4.8-3.2,8.1-6.6,5.2-12.5
			c-3.9-8-20.1-15.9-26.7-7.2C198.4,14.3,202.7,16.8,204.7,14.3L204.7,14.3z"/>
	</g>
</g>
<g>
	<g>
		<path class="st2" d="M209.3,70.3c3.2,0,3.2-5,0-5C206,65.3,206,70.3,209.3,70.3L209.3,70.3z"/>
	</g>
</g>
<g>
	<g>
		<path class="st2" d="M249.4,21.2c0,12.8,0,25.5,0,38.3c0,3.2,5,3.2,5,0c0-12.8,0-25.5,0-38.3C254.4,18,249.4,18,249.4,21.2
			L249.4,21.2z"/>
	</g>
</g>
<g>
	<g>
		<path class="st2" d="M251.1,81.9c3.2,0,3.2-5,0-5C247.9,76.9,247.9,81.9,251.1,81.9L251.1,81.9z"/>
	</g>
</g>
<circle class="st4" cx="101.6" cy="123.2" r="17"/>
</svg>
