<?xml version="1.0" encoding="utf-8"?>
<!-- Generator: Adobe Illustrator 19.1.0, SVG Export Plug-In . SVG Version: 6.00 Build 0)  -->
<svg version="1.1" id="Layer_1" xmlns="http://www.w3.org/2000/svg" xmlns:xlink="http://www.w3.org/1999/xlink" x="0px" y="0px"
	 viewBox="0 0 300 300" style="enable-background:new 0 0 300 300;" xml:space="preserve">
<style type="text/css">
	.st0{fill:#FFFFFF;stroke:#FEED50;stroke-miterlimit:10;}
	.st1{fill:none;stroke:#1B1548;stroke-width:12;stroke-miterlimit:10;}
	.st2{fill:none;stroke:#1B1548;stroke-width:3;stroke-miterlimit:10;}
	.st3{fill:#1B1548;}
	.st4{fill:#FEED50;}
</style>
<rect x="-6.9" class="st0" width="315.9" height="305.5"/>
<circle class="st1" cx="145.6" cy="123.4" r="109.1"/>
<circle class="st2" cx="105.5" cy="97.9" r="18.6"/>
<circle class="st2" cx="179.9" cy="97.9" r="18.6"/>
<g>
	<g>
		<path class="st3" d="M95.8,154c30.1,0,60.1,0,90.2,0c3.2,0,3.2-5,0-5c-30.1,0-60.1,0-90.2,0C92.6,149,92.6,154,95.8,154L95.8,154z
			"/>
	</g>
</g>
<g>
	<g>
		<path class="st3" d="M93.2,151.1c-1.6,11.7,6,26,15.2,33.2c9.2,7.3,21,10.3,32.5,10.7c12.5,0.5,23.6-1.7,33.3-10.1
			c9-7.9,15.6-19.5,14.3-31.7c-0.3-3.2-5.3-3.2-5,0c1.1,10.5-4.1,20.1-11.6,27.1c-8.3,7.8-18.1,10.1-29.3,9.8
			c-10.4-0.3-18.6-2.6-27.7-7.6c-5-2.7-8.1-6.8-11-11.6c-3.3-5.6-6.7-11.7-5.8-18.5C98.4,149.3,93.6,148,93.2,151.1L93.2,151.1z"/>
	</g>
</g>
<g>
	<g>
		<path class="st3" d="M138.2,230.2c0,25.6,0,51.1,0,76.7c0,3.2,5,3.2,5,0c0-25.6,0-51.1,0-76.7C143.2,227,138.2,227,138.2,230.2
			L138.2,230.2z"/>
	</g>
</g>
<circle class="st3" cx="105.5" cy="100.1" r="10.7"/>
<circle class="st3" cx="179.9" cy="100.1" r="10.7"/>
<g>
	<g>
		<path class="st4" d="M246,38.7c6.8-3.4,13.1-7.4,19.1-12.2c2.5-2-1-5.5-3.5-3.5c-5.6,4.4-11.7,8.2-18.1,11.4
			C240.6,35.8,243.2,40.1,246,38.7L246,38.7z"/>
	</g>
</g>
<g>
	<g>
		<path class="st4" d="M274.2,130.3c3.3-0.1,6.5,0,9.8,0.3c3.2,0.4,3.2-4.7,0-5c-3.3-0.4-6.5-0.5-9.8-0.3
			C271,125.4,271,130.4,274.2,130.3L274.2,130.3z"/>
	</g>
</g>
<g>
	<g>
		<path class="st4" d="M252.4,197.9c6,5.4,11.6,11.3,16.5,17.7c1.9,2.5,6.3,0,4.3-2.5c-5.2-6.8-10.9-13.1-17.3-18.8
			C253.6,192.2,250,195.7,252.4,197.9L252.4,197.9z"/>
	</g>
</g>
<g>
	<g>
		<path class="st4" d="M199.1,233.8c2.8,5.8,5.4,11.7,7.9,17.6c1.2,2.9,6,1.7,4.8-1.3c-2.6-6.4-5.3-12.7-8.4-18.8
			C202,228.4,197.7,230.9,199.1,233.8L199.1,233.8z"/>
	</g>
</g>
<g>
	<g>
		<path class="st4" d="M81.3,233.5c-4.6,6.1-9.2,12.1-13.9,18.2c-1.9,2.6,2.4,5.1,4.3,2.5c4.6-6.1,9.2-12.1,13.9-18.2
			C87.6,233.4,83.2,230.9,81.3,233.5L81.3,233.5z"/>
	</g>
</g>
<g>
	<g>
		<path class="st4" d="M25.5,178.2c-6.4-0.2-12.4,1.2-18.2,3.9c-2.9,1.4-0.4,5.7,2.5,4.3c4.9-2.3,10.2-3.4,15.6-3.2
			C28.8,183.2,28.8,178.2,25.5,178.2L25.5,178.2z"/>
	</g>
</g>
<g>
	<g>
		<path class="st4" d="M19.4,112.2c-4.1-0.6-8.3-1.1-12.5-1.4c-3.2-0.2-3.2,4.8,0,5c3.7,0.3,7.5,0.7,11.2,1.2
			C21.3,117.5,22.6,112.7,19.4,112.2L19.4,112.2z"/>
	</g>
</g>
<g>
	<g>
		<path class="st4" d="M40.8,47.9C33,42.7,25,37.8,16.7,33.3c-2.8-1.5-5.4,2.8-2.5,4.3c8.3,4.5,16.3,9.3,24.1,14.6
			C41,54,43.5,49.7,40.8,47.9L40.8,47.9z"/>
	</g>
</g>
<g>
	<g>
		<path class="st4" d="M93.7,12.5C91,7.8,87.3,3.8,82.9,0.6c-2.6-1.9-5.1,2.4-2.5,4.3c3.7,2.7,6.7,6.1,9,10.1
			C91,17.8,95.3,15.3,93.7,12.5L93.7,12.5z"/>
	</g>
</g>
<g>
	<g>
		<path class="st4" d="M203.9,14c2.6-3.1,5.3-6.2,7.9-9.3c2.1-2.4-1.4-6-3.5-3.5c-2.6,3.1-5.3,6.2-7.9,9.3
			C198.3,12.9,201.8,16.4,203.9,14L203.9,14z"/>
	</g>
</g>
</svg>
