<?xml version="1.0" encoding="utf-8"?>
<!-- Generator: Adobe Illustrator 19.1.0, SVG Export Plug-In . SVG Version: 6.00 Build 0)  -->
<svg version="1.1" id="Layer_1" xmlns="http://www.w3.org/2000/svg" xmlns:xlink="http://www.w3.org/1999/xlink" x="0px" y="0px"
	 viewBox="0 0 300 300" style="enable-background:new 0 0 300 300;" xml:space="preserve">
<style type="text/css">
	.st0{fill:none;stroke:#1A1647;stroke-width:8.6422;stroke-miterlimit:10;}
	.st1{fill:none;stroke:#1A1647;stroke-width:2.1605;stroke-miterlimit:10;}
	.st2{fill:#1A1647;}
</style>
<circle class="st0" cx="101.6" cy="92.9" r="78.6"/>
<circle class="st1" cx="72.7" cy="74.5" r="13.4"/>
<circle class="st1" cx="126.3" cy="74.5" r="13.4"/>
<g>
	<g>
		<path class="st2" d="M96.3,169.8c0,18.4,0,36.8,0,55.2c0,2.3,3.6,2.3,3.6,0c0-18.4,0-36.8,0-55.2
			C99.9,167.5,96.3,167.5,96.3,169.8L96.3,169.8z"/>
	</g>
</g>
<circle class="st2" cx="72.7" cy="76.1" r="7.7"/>
<circle class="st2" cx="126.3" cy="76.1" r="7.7"/>
<g>
	<g>
		<path class="st2" d="M67.5,121.7c3.1,9.1,11.9,12.4,20.9,13.2c12.7,1.1,25.7,0.4,38.4-1c3.2-0.3,3.2-5.3,0-5
			c-9.7,1-19.5,1.5-29.3,1.3c-8.7-0.1-21.6,0.2-25.1-9.9C71.3,117.3,66.5,118.6,67.5,121.7L67.5,121.7z"/>
	</g>
</g>
<image style="overflow:visible;" width="201" height="176" xlink:href="../../../../download/Logomakr_1ry64Y.png"  transform="matrix(0.6333 0 0 0.6333 150 168.075)">
</image>
</svg>
