<?xml version="1.0" encoding="utf-8"?>
<!-- Generator: Adobe Illustrator 19.1.0, SVG Export Plug-In . SVG Version: 6.00 Build 0)  -->
<svg version="1.1" id="Layer_1" xmlns="http://www.w3.org/2000/svg" xmlns:xlink="http://www.w3.org/1999/xlink" x="0px" y="0px"
	 viewBox="0 0 1000 200" style="enable-background:new 0 0 1000 200;" xml:space="preserve">
<style type="text/css">
	.st0{fill:#102542;}
	.st1{fill:none;stroke:#102542;stroke-width:9;stroke-miterlimit:10;}
	.st2{fill:#FFFFFF;}
	.st3{font-family:'Roboto-Light';}
	.st4{font-size:32.6792px;}
	.st5{fill:none;}
</style>
<path class="st0" d="M248,100.5c0,53.3-43.2,96.5-96.5,96.5l0,0C98.2,197,55,153.8,55,100.5l0,0C55,47.2,98.2,4,151.5,4l0,0
	C204.8,4,248,47.2,248,100.5L248,100.5z"/>
<path class="st0" d="M596,98.5c0,53.3-43.2,96.5-96.5,96.5l0,0c-53.3,0-96.5-43.2-96.5-96.5l0,0C403,45.2,446.2,2,499.5,2l0,0
	C552.8,2,596,45.2,596,98.5L596,98.5z"/>
<path class="st0" d="M596,100.5c0,53.3-43.2,96.5-96.5,96.5l0,0c-53.3,0-96.5-43.2-96.5-96.5l0,0C403,47.2,446.2,4,499.5,4l0,0
	C552.8,4,596,47.2,596,100.5L596,100.5z"/>
<path class="st0" d="M951,100.5c0,53.3-43.2,96.5-96.5,96.5l0,0c-53.3,0-96.5-43.2-96.5-96.5l0,0C758,47.2,801.2,4,854.5,4l0,0
	C907.8,4,951,47.2,951,100.5L951,100.5z"/>
<line class="st1" x1="239" y1="103.5" x2="426" y2="103.5"/>
<line class="st1" x1="587" y1="103.5" x2="773" y2="103.5"/>
<text transform="matrix(1 0 0 1 60.828 112.3789)" class="st2 st3 st4">ORGANIZED</text>
<text transform="matrix(1 0 0 1 460.6265 91.2753)"><tspan x="0" y="0" class="st2 st3 st4">FAST</tspan><tspan x="-31.2" y="39.2" class="st2 st3 st4">LEARNER</tspan></text>
<text transform="matrix(1 0 0 1 770.0479 114.4198)" class="st2 st3 st4">AMBITIOUS</text>
<rect x="181" y="14.3" class="st5" width="471" height="118.7"/>
</svg>
